<svg width="96" height="96" viewBox="0 0 96 96" fill="none" xmlns="http://www.w3.org/2000/svg">
<rect width="96" height="96" rx="20" fill="#DE8B0E"/>
<path d="M48.2991 13C34.3024 13 23 24.3024 23 38.2991C23 43.1793 24.559 47.8392 26.7279 51.6686L43.2155 80.2041C44.2492 82.068 46.3334 83 48.2991 83C50.2649 83 52.2473 82.068 53.3826 80.2041L69.8702 51.6856C72.0562 47.8558 73.5982 43.2806 73.5982 38.3157C73.5982 24.3193 62.2958 13 48.2991 13ZM48.2991 45.7719C43.2155 45.7719 39.064 41.6203 39.064 36.5368C39.064 31.4532 43.2155 27.3017 48.2991 27.3017C53.3826 27.3017 57.5342 31.4532 57.5342 36.5368C57.5342 41.6373 53.3826 45.7719 48.2991 45.7719Z" fill="black"/>
</svg>
