<svg width="96" height="96" viewBox="0 0 96 96" fill="none" xmlns="http://www.w3.org/2000/svg">
<rect width="96" height="96" rx="20" fill="#DE8B0E"/>
<path d="M28.7129 13.0363C29.0411 13.1238 29.528 13.4028 29.7742 13.6544C30.1626 14.0483 41.3721 28.852 41.5745 29.235C42.1215 30.2799 42.0121 31.4998 41.2845 32.397C41.1806 32.5283 39.9333 33.5623 38.5164 34.7002C35.8467 36.8392 35.7482 36.9322 35.4801 37.5504C35.2066 38.1741 35.1191 39.0767 35.2504 39.9028C35.4035 40.8383 35.8685 42.0856 36.5633 43.4259C37.4933 45.2149 37.6629 45.4501 42.7014 52.0477L47.4828 58.3226L48.7137 59.6192C51.1318 62.174 52.6526 63.4487 53.9382 64.0012C54.4142 64.2091 54.447 64.2146 55.0597 64.2146C55.7326 64.2146 56.0007 64.138 56.4055 63.8316C56.4985 63.7605 57.5051 62.5569 58.6321 61.1619C59.759 59.7669 60.7657 58.5579 60.8641 58.4703C61.7558 57.7154 63.1071 57.8193 63.9277 58.6946C64.2177 59.0065 75.3997 73.7336 75.6131 74.0837C76.2258 75.1012 76.1 76.5346 75.3122 77.4099C75.1426 77.6013 70.7059 80.9166 69.7266 81.584C68.1839 82.6344 65.454 83.1705 62.7351 82.9517C55.0816 82.328 46.4106 76.6823 37.8872 66.7584C31.3388 59.1378 25.9775 50.7402 22.9358 43.3439C21.0156 38.6774 19.9762 34.4431 19.7136 30.2142C19.4455 25.9197 20.3318 21.5979 22.0003 19.0704C22.2739 18.6547 26.4918 13.7474 26.7927 13.4958C27.1264 13.2113 27.6133 13.0253 28.0783 13.0034C28.308 12.9925 28.5925 13.0089 28.7129 13.0363Z" fill="black"/>
</svg>
