<svg width="96" height="96" viewBox="0 0 96 96" fill="none" xmlns="http://www.w3.org/2000/svg">
<rect width="96" height="96" rx="20" fill="#DE8B0E"/>
<path d="M48 58L39.34 50.42L14.58 71.645C15.48 72.48 16.695 73 18.035 73H77.965C79.3 73 80.51 72.48 81.405 71.645L56.66 50.42L48 58Z" fill="#030104"/>
<path d="M81.42 24.355C80.52 23.515 79.31 23 77.965 23H18.035C16.7 23 15.49 23.52 14.59 24.365L48 53L81.42 24.355Z" fill="#030104"/>
<path d="M13 27.39V68.93L37.165 48.395L13 27.39Z" fill="#030104"/>
<path d="M58.835 48.395L83 68.93V27.375L58.835 48.395Z" fill="#030104"/>
</svg>
