<svg width="96" height="96" viewBox="0 0 96 96" fill="none" xmlns="http://www.w3.org/2000/svg">
<rect width="96" height="96" rx="20" fill="#DE8B0E"/>
<path d="M83 47.125C83 66 67.625 81.25 48.625 81.25C42.625 81.25 37 79.75 32 77L13 83L19.25 64.75C16.125 59.625 14.375 53.625 14.375 47.125C14.25 28.25 29.625 13 48.625 13C67.625 13 83 28.25 83 47.125ZM66 55C65.75 54.625 65.25 54.5 64.375 54C63.5 53.625 59.375 51.5 58.625 51.25C57.875 51 57.25 50.875 56.75 51.625C56.25 52.5 54.625 54.375 54.125 54.875C53.625 55.375 53.125 55.5 52.25 55.125C51.375 54.75 48.75 53.875 45.5 51C43 48.75 41.25 46 40.875 45.25C40.375 44.375 40.875 44 41.25 43.5C41.625 43.125 42.125 42.5 42.5 42C42.875 41.5 43 41.125 43.375 40.625C43.625 40.125 43.5 39.625 43.25 39.125C43 38.75 41.375 34.625 40.625 32.875C39.875 31.25 39.25 31.5 38.75 31.5C38.25 31.5 37.75 31.375 37.125 31.375C36.625 31.375 35.625 31.625 34.875 32.375C34.125 33.25 31.875 35.25 31.875 39.375C31.875 43.5 34.875 47.5 35.375 48C35.75 48.5 41.25 57.25 49.75 60.625C58.375 64 58.375 62.875 59.875 62.75C61.375 62.625 64.875 60.75 65.5 58.75C66.25 57 66.25 55.25 66 55Z" fill="black"/>
</svg>
